<?xml version="1.0" encoding="utf-8"?>
<!-- Generator: Adobe Illustrator 24.0.0, SVG Export Plug-In . SVG Version: 6.00 Build 0)  -->
<svg version="1.1" id="Layer_1" xmlns="http://www.w3.org/2000/svg" xmlns:xlink="http://www.w3.org/1999/xlink" x="0px" y="0px"
	 viewBox="0 0 527.7 64.3" style="enable-background:new 0 0 527.7 64.3;" xml:space="preserve">
<style type="text/css">
	.st0{enable-background:new    ;}
	.st1{fill:#FFFFFF;}
</style>
<title>Asset 3</title>
<g id="Layer_2_1_">
	<g id="Layer_1-2">
		<g class="st0">
			<path class="st1" d="M15.4,39.1c2.3,0,4.3-0.1,5.9-0.4c1.6-0.3,2.9-0.7,3.8-1.4c1-0.6,1.7-1.4,2.1-2.4c0.4-1,0.6-2.2,0.6-3.6V9.8
				h12.3v21.5c0,12-8.2,17.9-24.7,17.9H0.6l8-10.1H15.4z"/>
		</g>
		<g class="st0">
			<path class="st1" d="M71.5,24.5c0.9,1.5,1.6,2.9,2.3,4s1.2,2.2,1.7,3.1c0.5,0.9,0.9,1.7,1.3,2.5c0.4,0.7,0.7,1.5,1.1,2.2
				c0.3-0.7,0.7-1.4,1-2.2c0.4-0.7,0.8-1.6,1.3-2.5c0.5-0.9,1.1-2,1.7-3.1c0.6-1.1,1.4-2.5,2.3-4l6.3-11.2c0.7-1.3,1.6-2.3,2.7-3
				c1.1-0.8,2.4-1.2,4-1.2c1.5,0,2.9,0.4,4.2,1.3c1.2,0.9,2.1,2.3,2.7,4.1l10,34.7h-12.2l-3.7-13.7c-0.6-2.2-1.2-4.2-1.6-5.9
				c-0.4-1.7-0.8-3.3-1.1-5c-0.7,1.4-1.4,2.9-2.2,4.6S91.3,33,90,35.6l-5.3,9.9c-0.5,1-1,1.8-1.6,2.3c-0.5,0.6-1.1,1-1.6,1.3
				c-0.6,0.3-1.1,0.5-1.8,0.6c-0.6,0.1-1.3,0.1-2.1,0.1c-0.7,0-1.4,0-2.1-0.1c-0.6-0.1-1.2-0.3-1.8-0.6c-0.6-0.3-1.1-0.8-1.6-1.3
				c-0.5-0.6-1.1-1.3-1.6-2.3l-5.3-10c-0.7-1.3-1.3-2.5-1.9-3.6c-0.6-1.1-1.1-2-1.5-2.9c-0.5-0.8-0.8-1.6-1.2-2.3
				c-0.3-0.7-0.7-1.4-1-2.1c-0.3,1.6-0.7,3.2-1.1,4.9c-0.4,1.7-0.9,3.7-1.5,5.9l-3.7,13.7h-12l10.2-34.7c0.6-1.8,1.5-3.2,2.7-4.1
				c1.3-0.9,2.7-1.3,4.2-1.3c1.6,0,2.9,0.4,4,1.1c1.1,0.7,2,1.8,2.7,3.1L71.5,24.5z"/>
			<path class="st1" d="M135.2,49.2l7.4-10.1h9.9c1.2,0,2.4,0,3.7,0c1.3,0,2.4,0,3.3,0.1c-0.6-0.7-1.2-1.6-1.9-2.7
				c-0.7-1.1-1.4-2.1-2.1-3L148.4,23l-18.5,26.2h-14.5l25.3-35.7c0.8-1.1,1.9-2.2,3.1-3.1c1.3-0.9,2.9-1.4,4.8-1.4
				c1.8,0,3.4,0.4,4.6,1.3c1.2,0.8,2.3,1.9,3.2,3.2l24.7,35.7H135.2z"/>
			<path class="st1" d="M241.5,49.2h-16.3l-8.8-10.4h-18.8v10.4h-12.2V29.1h34.3c1.9,0,3.5-0.4,4.8-1.2c1.3-0.8,1.9-1.9,1.9-3.2
				c0-1.5-0.6-2.7-1.8-3.5c-1.2-0.8-2.8-1.2-5-1.2h-34.3l8-10.3h25.4c2.2,0,4.6,0.2,7,0.6c2.4,0.4,4.6,1.2,6.5,2.2
				c2,1.1,3.6,2.5,4.9,4.3c1.3,1.8,1.9,4.1,1.9,7c0,1.5-0.2,3-0.7,4.4c-0.5,1.4-1.2,2.6-2,3.7c-0.9,1.1-2,2-3.2,2.8
				c-1.3,0.8-2.7,1.3-4.3,1.6c0.7,0.5,1.4,1.2,2.2,1.9c0.8,0.8,1.9,1.9,3.3,3.2L241.5,49.2z"/>
			<path class="st1" d="M295.6,49.2h-18.5l-11.9-10.4c-2-1.8-3.6-3.1-4.7-4.1c-1.1-1-2-1.8-2.6-2.5c0,0.9,0.1,1.8,0.1,2.8
				c0,1,0.1,1.9,0.1,2.9v11.3h-12.3V9.8h12.3v9.1c0,1.2,0,2.4-0.1,3.6c0,1.2-0.1,2.3-0.2,3.3c0.8-0.7,1.7-1.6,2.9-2.6
				c1.1-1,2.6-2.3,4.4-3.8l11.4-9.6h17.7l-15.1,11.3c-1.3,1-2.4,1.8-3.5,2.6s-1.9,1.4-2.7,1.9s-1.5,1-2.2,1.5
				c-0.6,0.4-1.3,0.8-1.9,1.2c1.1,0.8,2.5,1.8,4.1,3c1.6,1.2,3.7,2.8,6.3,4.9L295.6,49.2z"/>
			<path class="st1" d="M336.2,25.5c4.8,0,8.5,0.9,11,2.7c2.5,1.8,3.8,4.5,3.8,8.1c0,2-0.3,3.8-0.9,5.4c-0.6,1.6-1.6,3-3,4.1
				c-1.4,1.1-3.1,1.9-5.3,2.5c-2.1,0.6-4.7,0.9-7.7,0.9h-36.8l7.8-10.1h29.9c1.5,0,2.5-0.2,3.2-0.7c0.7-0.5,1-1.2,1-2.2
				c0-1-0.3-1.8-1-2.2c-0.7-0.4-1.7-0.6-3.2-0.6h-21.5c-2.6,0-4.8-0.3-6.6-0.8c-1.8-0.5-3.4-1.3-4.6-2.3c-1.2-1-2.1-2.2-2.7-3.6
				c-0.6-1.4-0.9-2.9-0.9-4.6c0-1.8,0.3-3.5,1-5c0.6-1.5,1.7-2.8,3-3.9c1.4-1.1,3.1-1.9,5.3-2.5s4.7-0.9,7.7-0.9H350L342.1,20h-27.4
				c-1.4,0-2.5,0.2-3.2,0.6c-0.7,0.4-1,1.1-1,2.1c0,1,0.3,1.7,1,2.2c0.7,0.4,1.7,0.6,3.2,0.6H336.2z"/>
			<path class="st1" d="M355.2,44.2c0-1.8,0.6-3.3,1.9-4.3c1.3-1,2.8-1.5,4.7-1.5c1.9,0,3.5,0.5,4.7,1.5c1.3,1,1.9,2.4,1.9,4.3
				c0,1.8-0.6,3.2-1.9,4.2s-2.9,1.5-4.7,1.5c-1.8,0-3.4-0.5-4.7-1.5C355.9,47.4,355.2,46,355.2,44.2z"/>
			<path class="st1" d="M414.7,49.9c-0.8,0-1.6-0.1-2.3-0.4c-0.8-0.3-1.6-0.8-2.6-1.7l-24.2-21.7v23.2h-11.1V16.5
				c0-1.3,0.2-2.4,0.6-3.4c0.4-0.9,0.9-1.7,1.5-2.3c0.6-0.6,1.3-1,2.1-1.3c0.8-0.3,1.6-0.4,2.5-0.4c0.7,0,1.5,0.1,2.3,0.4
				c0.8,0.3,1.6,0.8,2.6,1.7L410.3,33V9.8h11.2v32.7c0,1.3-0.2,2.4-0.6,3.4s-0.9,1.7-1.5,2.3c-0.6,0.6-1.3,1.1-2.2,1.3
				C416.4,49.8,415.6,49.9,414.7,49.9z"/>
			<path class="st1" d="M474.5,39.1l-7.8,10.1h-38V9.8h45.7L466.4,20h-25.5v4.7h31.3l-7,9h-24.2v5.4H474.5z"/>
			<path class="st1" d="M527.7,9.8L519.8,20h-14.1v29.2h-12.2V20h-18.5l7.9-10.3H527.7z"/>
		</g>
	</g>
</g>
</svg>
