<svg xmlns="http://www.w3.org/2000/svg" viewBox="0 0 271.84 54.76"><defs><style>.cls-1{fill:#fff;}</style></defs><title>Asset 3</title><g id="Layer_2" data-name="Layer 2"><g id="Layer_1-2" data-name="Layer 1"><path class="cls-1" d="M0,50.13c2.32-.08,3.72-.29,4.19-.62s.71-1.39.71-3.16V11.61h5.18V46.9a9.29,9.29,0,0,1-1.09,5Q7.18,54.76,2.1,54.76l-.79,0L0,54.62ZM10.08,6H4.9V0h5.18Z"/><path class="cls-1" d="M18,11.47h5.12v4.37a17.37,17.37,0,0,1,3.35-3.31,10,10,0,0,1,5.81-1.76,9.18,9.18,0,0,1,5.94,1.82,9.55,9.55,0,0,1,2.3,3.05,10.79,10.79,0,0,1,9.31-4.87q6.22,0,8.47,4.5a14.62,14.62,0,0,1,1.21,6.51V42.32H54.13V20.89c0-2.06-.51-3.47-1.54-4.24a6.09,6.09,0,0,0-3.76-1.15,7.47,7.47,0,0,0-5.26,2c-1.47,1.37-2.2,3.64-2.2,6.83v18H36.1V22.18a10.46,10.46,0,0,0-.75-4.58q-1.18-2.16-4.41-2.16a7.58,7.58,0,0,0-5.34,2.28Q23.18,20,23.19,26V42.32H18Z"/><path class="cls-1" d="M83.69,23.62a2.81,2.81,0,0,0,2.39-1.49,4.61,4.61,0,0,0,.35-2,4.22,4.22,0,0,0-1.89-3.85,10.11,10.11,0,0,0-5.4-1.19q-4.06,0-5.76,2.19a7.08,7.08,0,0,0-1.24,3.6H67.3c.09-3.81,1.33-6.45,3.7-7.94a15.17,15.17,0,0,1,8.25-2.23,16.85,16.85,0,0,1,8.85,2.07,7.05,7.05,0,0,1,3.37,6.45V37a2.3,2.3,0,0,0,.33,1.3c.22.32.68.48,1.4.48a7.23,7.23,0,0,0,.77,0c.29,0,.6-.07.93-.13v3.83a15.62,15.62,0,0,1-1.85.44,15.29,15.29,0,0,1-1.73.08,4.27,4.27,0,0,1-3.89-1.9,7.31,7.31,0,0,1-.89-2.85A13.26,13.26,0,0,1,82,41.83a14.07,14.07,0,0,1-6.54,1.53,9.7,9.7,0,0,1-7-2.61,8.65,8.65,0,0,1-2.73-6.53,8.41,8.41,0,0,1,2.68-6.65,12.83,12.83,0,0,1,7-2.91Zm-10.92,14A6.07,6.07,0,0,0,76.66,39,11.78,11.78,0,0,0,82,37.68a7.13,7.13,0,0,0,4.32-6.88V26.62a9,9,0,0,1-2.45,1,20,20,0,0,1-2.94.57l-3.14.41a12,12,0,0,0-4.23,1.18,4.6,4.6,0,0,0-2.39,4.32A4.27,4.27,0,0,0,72.77,37.65Z"/><path class="cls-1" d="M100.11,11.47H105V16.8A11.74,11.74,0,0,1,108,13a7.71,7.71,0,0,1,5.45-2.24l.49,0,1.18.12v5.47a7.35,7.35,0,0,0-.85-.11c-.26,0-.54,0-.85,0a7.4,7.4,0,0,0-6,2.52,8.79,8.79,0,0,0-2.1,5.8V42.32h-5.19Z"/><path class="cls-1" d="M119.5,0h5V24.57l13.31-13.1h6.63L132.61,23l12.47,19.3h-6.63l-9.62-15.56-4.35,4V42.32h-5Z"/><path class="cls-1" d="M152.2,32.64a7.55,7.55,0,0,0,1.29,4c1.31,1.67,3.57,2.5,6.8,2.5a10.08,10.08,0,0,0,5.07-1.25A4.17,4.17,0,0,0,167.55,34a3.32,3.32,0,0,0-1.76-3,21.11,21.11,0,0,0-4.43-1.47l-4.12-1a20,20,0,0,1-5.82-2.19,6.53,6.53,0,0,1-3.34-5.82,8.89,8.89,0,0,1,3.15-7.08,12.55,12.55,0,0,1,8.48-2.71q7,0,10.06,4.09a8.85,8.85,0,0,1,1.87,5.59h-4.9a6,6,0,0,0-1.24-3.2q-1.78-2-6.19-2a7.4,7.4,0,0,0-4.45,1.12,3.52,3.52,0,0,0-1.51,3,3.63,3.63,0,0,0,2,3.22,11.68,11.68,0,0,0,3.4,1.27l3.42.84q5.59,1.35,7.49,2.62c2,1.32,3,3.41,3,6.25a9.48,9.48,0,0,1-3.13,7.11q-3.12,3-9.52,3-6.89,0-9.75-3.12a11.89,11.89,0,0,1-3.07-7.74Z"/><path class="cls-1" d="M179.85,36h6v6.28h-6Z"/><path class="cls-1" d="M195,11.47h4.93v4.37A13.79,13.79,0,0,1,204.57,12,12.33,12.33,0,0,1,210,10.77q6.57,0,8.88,4.58a16.4,16.4,0,0,1,1.27,7.18V42.32h-5.28V22.87a10.63,10.63,0,0,0-.83-4.55,5.06,5.06,0,0,0-5-2.88,10.22,10.22,0,0,0-3,.38,7.78,7.78,0,0,0-3.75,2.53,7.68,7.68,0,0,0-1.68,3.16,21.1,21.1,0,0,0-.39,4.65V42.32H195Z"/><path class="cls-1" d="M247,12.32a11.63,11.63,0,0,1,4.7,4,13.6,13.6,0,0,1,2.07,5.44,35.43,35.43,0,0,1,.46,6.8H231.65a13.23,13.23,0,0,0,2.22,7.53q2.07,2.84,6.42,2.84a8.28,8.28,0,0,0,6.48-2.68,8.92,8.92,0,0,0,2-3.6h5.1a10.64,10.64,0,0,1-1.34,3.79,13.49,13.49,0,0,1-2.55,3.41A12,12,0,0,1,244.09,43a17.57,17.57,0,0,1-4.23.46,13,13,0,0,1-9.77-4.19q-4-4.19-4-11.74t4-12.07a13.33,13.33,0,0,1,10.55-4.64A14,14,0,0,1,247,12.32Zm1.91,12.11A13.57,13.57,0,0,0,247.46,19q-2.13-3.73-7.11-3.74a7.88,7.88,0,0,0-6,2.58,9.7,9.7,0,0,0-2.57,6.55Z"/><path class="cls-1" d="M261.67,2.85h5.24v8.62h4.93V15.7h-4.93V35.84A2.19,2.19,0,0,0,268,38a4.62,4.62,0,0,0,2,.32l.81,0c.29,0,.62,0,1-.07v4.09a11.34,11.34,0,0,1-1.86.37,16.94,16.94,0,0,1-2.09.12q-3.63,0-4.93-1.86a8.29,8.29,0,0,1-1.29-4.82V15.7h-4.18V11.47h4.18Z"/></g></g></svg>