<svg id="Layer_1" data-name="Layer 1" xmlns="http://www.w3.org/2000/svg" viewBox="0 0 24 24"><title>steam-1</title><path d="M12,0A12,12,0,1,0,24,12,12,12,0,0,0,12,0Zm0,22a10,10,0,0,1-9.73-7.75L6,15.83a2.7,2.7,0,0,0,5.34-.51h0L14.45,13A3.51,3.51,0,1,0,11,9.44L8.72,12.61A2.61,2.61,0,0,0,7.19,13L2.06,10.89A10,10,0,1,1,12,22ZM9.25,13.91l-1.33-.56a2.18,2.18,0,0,1,.74-.13,2.09,2.09,0,0,1,0,4.17,2.11,2.11,0,0,1-1.93-1.25l1.33.55a1.51,1.51,0,0,0,1.17-2.78Zm2.86-4.4a2.39,2.39,0,1,1,2.38,2.38A2.39,2.39,0,0,1,12.11,9.51Zm2.38,1.8a1.8,1.8,0,1,1,1.8-1.8A1.81,1.81,0,0,1,14.49,11.31Z" transform="translate(0 0)" style="fill:#fff"/></svg>